<mxfile host="Electron" modified="2024-03-22T21:32:28.397Z" agent="Mozilla/5.0 (Macintosh; Intel Mac OS X 10_15_7) AppleWebKit/537.36 (KHTML, like Gecko) draw.io/24.0.4 Chrome/120.0.6099.109 Electron/28.1.0 Safari/537.36" etag="QDFAFccR0F1icGeYXUpM" version="24.0.4" type="device">
  <diagram name="Page-1" id="99cRSf7tibIR4LTFag5N">
    <mxGraphModel dx="1434" dy="907" grid="1" gridSize="10" guides="1" tooltips="1" connect="1" arrows="1" fold="1" page="1" pageScale="1" pageWidth="1400" pageHeight="850" math="0" shadow="0">
      <root>
        <mxCell id="0" />
        <mxCell id="1" parent="0" />
        <mxCell id="lY5xhKyxChRA9pRhjd0q-130" value="" style="group" parent="1" vertex="1" connectable="0">
          <mxGeometry x="300" y="740" width="1090" height="100" as="geometry" />
        </mxCell>
        <mxCell id="lY5xhKyxChRA9pRhjd0q-113" value="" style="rounded=0;whiteSpace=wrap;html=1;fillColor=#dae8fc;strokeColor=#6c8ebf;fontSize=24;" parent="lY5xhKyxChRA9pRhjd0q-130" vertex="1">
          <mxGeometry width="1090" height="100" as="geometry" />
        </mxCell>
        <mxCell id="lY5xhKyxChRA9pRhjd0q-114" value="2.2" style="whiteSpace=wrap;html=1;aspect=fixed;fontSize=24;" parent="lY5xhKyxChRA9pRhjd0q-130" vertex="1">
          <mxGeometry x="100" y="10" width="80" height="80" as="geometry" />
        </mxCell>
        <mxCell id="lY5xhKyxChRA9pRhjd0q-116" value="&lt;span style=&quot;color: rgb(0, 0, 0); font-family: Helvetica; font-size: 24px; font-style: normal; font-variant-ligatures: normal; font-variant-caps: normal; font-weight: 400; letter-spacing: normal; orphans: 2; text-align: center; text-indent: 0px; text-transform: none; widows: 2; word-spacing: 0px; -webkit-text-stroke-width: 0px; background-color: rgb(251, 251, 251); text-decoration-thickness: initial; text-decoration-style: initial; text-decoration-color: initial; float: none; display: inline !important;&quot;&gt;3.3&lt;/span&gt;" style="whiteSpace=wrap;html=1;aspect=fixed;fontSize=24;" parent="lY5xhKyxChRA9pRhjd0q-130" vertex="1">
          <mxGeometry x="190" y="10" width="80" height="80" as="geometry" />
        </mxCell>
        <mxCell id="lY5xhKyxChRA9pRhjd0q-117" value="&lt;span style=&quot;color: rgb(0, 0, 0); font-family: Helvetica; font-size: 24px; font-style: normal; font-variant-ligatures: normal; font-variant-caps: normal; font-weight: 400; letter-spacing: normal; orphans: 2; text-align: center; text-indent: 0px; text-transform: none; widows: 2; word-spacing: 0px; -webkit-text-stroke-width: 0px; background-color: rgb(251, 251, 251); text-decoration-thickness: initial; text-decoration-style: initial; text-decoration-color: initial; float: none; display: inline !important;&quot;&gt;4.4&lt;/span&gt;" style="whiteSpace=wrap;html=1;aspect=fixed;fontSize=24;" parent="lY5xhKyxChRA9pRhjd0q-130" vertex="1">
          <mxGeometry x="280" y="10" width="80" height="80" as="geometry" />
        </mxCell>
        <mxCell id="lY5xhKyxChRA9pRhjd0q-118" value="&lt;span style=&quot;color: rgb(0, 0, 0); font-family: Helvetica; font-size: 24px; font-style: normal; font-variant-ligatures: normal; font-variant-caps: normal; font-weight: 400; letter-spacing: normal; orphans: 2; text-align: center; text-indent: 0px; text-transform: none; widows: 2; word-spacing: 0px; -webkit-text-stroke-width: 0px; background-color: rgb(251, 251, 251); text-decoration-thickness: initial; text-decoration-style: initial; text-decoration-color: initial; float: none; display: inline !important;&quot;&gt;5.5&lt;/span&gt;" style="whiteSpace=wrap;html=1;aspect=fixed;fontSize=24;" parent="lY5xhKyxChRA9pRhjd0q-130" vertex="1">
          <mxGeometry x="370" y="10" width="80" height="80" as="geometry" />
        </mxCell>
        <mxCell id="lY5xhKyxChRA9pRhjd0q-120" value="8.8" style="whiteSpace=wrap;html=1;aspect=fixed;fontSize=24;" parent="lY5xhKyxChRA9pRhjd0q-130" vertex="1">
          <mxGeometry x="640" y="10" width="80" height="80" as="geometry" />
        </mxCell>
        <mxCell id="lY5xhKyxChRA9pRhjd0q-121" value="7.7" style="whiteSpace=wrap;html=1;aspect=fixed;fontSize=24;" parent="lY5xhKyxChRA9pRhjd0q-130" vertex="1">
          <mxGeometry x="550" y="10" width="80" height="80" as="geometry" />
        </mxCell>
        <mxCell id="lY5xhKyxChRA9pRhjd0q-122" value="9.9" style="whiteSpace=wrap;html=1;aspect=fixed;fontSize=24;" parent="lY5xhKyxChRA9pRhjd0q-130" vertex="1">
          <mxGeometry x="730" y="10" width="80" height="80" as="geometry" />
        </mxCell>
        <mxCell id="lY5xhKyxChRA9pRhjd0q-123" value="10.1" style="whiteSpace=wrap;html=1;aspect=fixed;fontSize=24;" parent="lY5xhKyxChRA9pRhjd0q-130" vertex="1">
          <mxGeometry x="820" y="10" width="80" height="80" as="geometry" />
        </mxCell>
        <mxCell id="lY5xhKyxChRA9pRhjd0q-126" value="0" style="whiteSpace=wrap;html=1;aspect=fixed;fontSize=24;fillColor=#dae8fc;strokeColor=#6c8ebf;" parent="lY5xhKyxChRA9pRhjd0q-130" vertex="1">
          <mxGeometry x="10" y="10" width="80" height="80" as="geometry" />
        </mxCell>
        <mxCell id="lY5xhKyxChRA9pRhjd0q-127" value="0" style="whiteSpace=wrap;html=1;aspect=fixed;fontSize=24;fillColor=#dae8fc;strokeColor=#6c8ebf;" parent="lY5xhKyxChRA9pRhjd0q-130" vertex="1">
          <mxGeometry x="460" y="10" width="80" height="80" as="geometry" />
        </mxCell>
        <mxCell id="lY5xhKyxChRA9pRhjd0q-128" value="0" style="whiteSpace=wrap;html=1;aspect=fixed;fontSize=24;fillColor=#dae8fc;strokeColor=#6c8ebf;" parent="lY5xhKyxChRA9pRhjd0q-130" vertex="1">
          <mxGeometry x="910" y="10" width="80" height="80" as="geometry" />
        </mxCell>
        <mxCell id="lY5xhKyxChRA9pRhjd0q-129" value="0" style="whiteSpace=wrap;html=1;aspect=fixed;fontSize=24;fillColor=#dae8fc;strokeColor=#6c8ebf;" parent="lY5xhKyxChRA9pRhjd0q-130" vertex="1">
          <mxGeometry x="1000" y="10" width="80" height="80" as="geometry" />
        </mxCell>
        <mxCell id="lY5xhKyxChRA9pRhjd0q-131" value="" style="group" parent="1" vertex="1" connectable="0">
          <mxGeometry x="300" y="620" width="1090" height="100" as="geometry" />
        </mxCell>
        <mxCell id="lY5xhKyxChRA9pRhjd0q-85" value="" style="rounded=0;whiteSpace=wrap;html=1;fillColor=#dae8fc;strokeColor=#6c8ebf;fontSize=24;" parent="lY5xhKyxChRA9pRhjd0q-131" vertex="1">
          <mxGeometry width="1090" height="100" as="geometry" />
        </mxCell>
        <mxCell id="lY5xhKyxChRA9pRhjd0q-88" value="&lt;span style=&quot;color: rgb(0, 0, 0); font-family: Helvetica; font-size: 24px; font-style: normal; font-variant-ligatures: normal; font-variant-caps: normal; font-weight: 400; letter-spacing: normal; orphans: 2; text-align: center; text-indent: 0px; text-transform: none; widows: 2; word-spacing: 0px; -webkit-text-stroke-width: 0px; background-color: rgb(251, 251, 251); text-decoration-thickness: initial; text-decoration-style: initial; text-decoration-color: initial; float: none; display: inline !important;&quot;&gt;3.3&lt;/span&gt;" style="whiteSpace=wrap;html=1;fontSize=24;" parent="lY5xhKyxChRA9pRhjd0q-131" vertex="1">
          <mxGeometry x="190" y="10" width="260" height="80" as="geometry" />
        </mxCell>
        <mxCell id="lY5xhKyxChRA9pRhjd0q-89" value="7.7" style="whiteSpace=wrap;html=1;fontSize=24;" parent="lY5xhKyxChRA9pRhjd0q-131" vertex="1">
          <mxGeometry x="550" y="10" width="170" height="80" as="geometry" />
        </mxCell>
        <mxCell id="lY5xhKyxChRA9pRhjd0q-95" value="0.0" style="whiteSpace=wrap;html=1;fontSize=24;" parent="lY5xhKyxChRA9pRhjd0q-131" vertex="1">
          <mxGeometry x="730" y="10" width="170" height="80" as="geometry" />
        </mxCell>
        <mxCell id="lY5xhKyxChRA9pRhjd0q-96" value="12.2" style="whiteSpace=wrap;html=1;aspect=fixed;fontSize=24;" parent="lY5xhKyxChRA9pRhjd0q-131" vertex="1">
          <mxGeometry x="910" y="10" width="80" height="80" as="geometry" />
        </mxCell>
        <mxCell id="lY5xhKyxChRA9pRhjd0q-97" value="13.3" style="whiteSpace=wrap;html=1;aspect=fixed;fontSize=24;" parent="lY5xhKyxChRA9pRhjd0q-131" vertex="1">
          <mxGeometry x="1000" y="10" width="80" height="80" as="geometry" />
        </mxCell>
        <mxCell id="lY5xhKyxChRA9pRhjd0q-98" value="1.1" style="whiteSpace=wrap;html=1;fontSize=24;" parent="lY5xhKyxChRA9pRhjd0q-131" vertex="1">
          <mxGeometry x="10" y="10" width="170" height="80" as="geometry" />
        </mxCell>
        <mxCell id="lY5xhKyxChRA9pRhjd0q-99" value="&lt;span style=&quot;color: rgb(0, 0, 0); font-family: Helvetica; font-size: 24px; font-style: normal; font-variant-ligatures: normal; font-variant-caps: normal; font-weight: 400; letter-spacing: normal; orphans: 2; text-align: center; text-indent: 0px; text-transform: none; widows: 2; word-spacing: 0px; -webkit-text-stroke-width: 0px; background-color: rgb(251, 251, 251); text-decoration-thickness: initial; text-decoration-style: initial; text-decoration-color: initial; float: none; display: inline !important;&quot;&gt;6.6&lt;/span&gt;" style="whiteSpace=wrap;html=1;aspect=fixed;fontSize=24;" parent="lY5xhKyxChRA9pRhjd0q-131" vertex="1">
          <mxGeometry x="460" y="10" width="80" height="80" as="geometry" />
        </mxCell>
        <mxCell id="lY5xhKyxChRA9pRhjd0q-132" value="" style="group" parent="1" vertex="1" connectable="0">
          <mxGeometry x="300" y="500" width="1090" height="100" as="geometry" />
        </mxCell>
        <mxCell id="lY5xhKyxChRA9pRhjd0q-56" value="" style="rounded=0;whiteSpace=wrap;html=1;fillColor=#dae8fc;strokeColor=#6c8ebf;fontSize=24;" parent="lY5xhKyxChRA9pRhjd0q-132" vertex="1">
          <mxGeometry width="1090" height="100" as="geometry" />
        </mxCell>
        <mxCell id="lY5xhKyxChRA9pRhjd0q-57" value="0" style="whiteSpace=wrap;html=1;aspect=fixed;fontSize=24;fillColor=#dae8fc;strokeColor=#6c8ebf;" parent="lY5xhKyxChRA9pRhjd0q-132" vertex="1">
          <mxGeometry x="100" y="10" width="80" height="80" as="geometry" />
        </mxCell>
        <mxCell id="lY5xhKyxChRA9pRhjd0q-58" value="0" style="whiteSpace=wrap;html=1;aspect=fixed;fontSize=24;fillColor=#dae8fc;strokeColor=#6c8ebf;" parent="lY5xhKyxChRA9pRhjd0q-132" vertex="1">
          <mxGeometry x="10" y="10" width="80" height="80" as="geometry" />
        </mxCell>
        <mxCell id="lY5xhKyxChRA9pRhjd0q-59" value="&lt;span style=&quot;color: rgb(0, 0, 0); font-family: Helvetica; font-size: 24px; font-style: normal; font-variant-ligatures: normal; font-variant-caps: normal; font-weight: 400; letter-spacing: normal; orphans: 2; text-align: center; text-indent: 0px; text-transform: none; widows: 2; word-spacing: 0px; -webkit-text-stroke-width: 0px; background-color: rgb(251, 251, 251); text-decoration-thickness: initial; text-decoration-style: initial; text-decoration-color: initial; float: none; display: inline !important;&quot;&gt;3.3&lt;/span&gt;" style="whiteSpace=wrap;html=1;fontSize=24;" parent="lY5xhKyxChRA9pRhjd0q-132" vertex="1">
          <mxGeometry x="190" y="10" width="260" height="80" as="geometry" />
        </mxCell>
        <mxCell id="lY5xhKyxChRA9pRhjd0q-64" value="7.7" style="whiteSpace=wrap;html=1;fontSize=24;" parent="lY5xhKyxChRA9pRhjd0q-132" vertex="1">
          <mxGeometry x="550" y="10" width="170" height="80" as="geometry" />
        </mxCell>
        <mxCell id="lY5xhKyxChRA9pRhjd0q-66" value="0" style="whiteSpace=wrap;html=1;aspect=fixed;fontSize=24;fillColor=#dae8fc;strokeColor=#6c8ebf;" parent="lY5xhKyxChRA9pRhjd0q-132" vertex="1">
          <mxGeometry x="820" y="10" width="80" height="80" as="geometry" />
        </mxCell>
        <mxCell id="lY5xhKyxChRA9pRhjd0q-67" value="0" style="whiteSpace=wrap;html=1;aspect=fixed;fontSize=24;fillColor=#dae8fc;strokeColor=#6c8ebf;" parent="lY5xhKyxChRA9pRhjd0q-132" vertex="1">
          <mxGeometry x="910" y="10" width="80" height="80" as="geometry" />
        </mxCell>
        <mxCell id="lY5xhKyxChRA9pRhjd0q-68" value="0" style="whiteSpace=wrap;html=1;aspect=fixed;fontSize=24;fillColor=#dae8fc;strokeColor=#6c8ebf;" parent="lY5xhKyxChRA9pRhjd0q-132" vertex="1">
          <mxGeometry x="1000" y="10" width="80" height="80" as="geometry" />
        </mxCell>
        <mxCell id="lY5xhKyxChRA9pRhjd0q-70" value="0" style="whiteSpace=wrap;html=1;aspect=fixed;fontSize=24;fillColor=#dae8fc;strokeColor=#6c8ebf;" parent="lY5xhKyxChRA9pRhjd0q-132" vertex="1">
          <mxGeometry x="730" y="10" width="80" height="80" as="geometry" />
        </mxCell>
        <mxCell id="lY5xhKyxChRA9pRhjd0q-71" value="0" style="whiteSpace=wrap;html=1;aspect=fixed;fontSize=24;fillColor=#dae8fc;strokeColor=#6c8ebf;" parent="lY5xhKyxChRA9pRhjd0q-132" vertex="1">
          <mxGeometry x="460" y="10" width="80" height="80" as="geometry" />
        </mxCell>
        <mxCell id="lY5xhKyxChRA9pRhjd0q-133" value="" style="group" parent="1" vertex="1" connectable="0">
          <mxGeometry x="300" y="380" width="1090" height="100" as="geometry" />
        </mxCell>
        <mxCell id="lY5xhKyxChRA9pRhjd0q-17" value="" style="rounded=0;whiteSpace=wrap;html=1;fillColor=#dae8fc;strokeColor=#6c8ebf;fontSize=24;" parent="lY5xhKyxChRA9pRhjd0q-133" vertex="1">
          <mxGeometry width="1090" height="100" as="geometry" />
        </mxCell>
        <mxCell id="lY5xhKyxChRA9pRhjd0q-18" value="0" style="whiteSpace=wrap;html=1;aspect=fixed;fontSize=24;fillColor=#dae8fc;strokeColor=#6c8ebf;" parent="lY5xhKyxChRA9pRhjd0q-133" vertex="1">
          <mxGeometry x="100" y="10" width="80" height="80" as="geometry" />
        </mxCell>
        <mxCell id="lY5xhKyxChRA9pRhjd0q-19" value="0" style="whiteSpace=wrap;html=1;aspect=fixed;fontSize=24;fillColor=#dae8fc;strokeColor=#6c8ebf;" parent="lY5xhKyxChRA9pRhjd0q-133" vertex="1">
          <mxGeometry x="10" y="10" width="80" height="80" as="geometry" />
        </mxCell>
        <mxCell id="lY5xhKyxChRA9pRhjd0q-20" value="&lt;span style=&quot;color: rgb(0, 0, 0); font-family: Helvetica; font-size: 24px; font-style: normal; font-variant-ligatures: normal; font-variant-caps: normal; font-weight: 400; letter-spacing: normal; orphans: 2; text-align: center; text-indent: 0px; text-transform: none; widows: 2; word-spacing: 0px; -webkit-text-stroke-width: 0px; background-color: rgb(251, 251, 251); text-decoration-thickness: initial; text-decoration-style: initial; text-decoration-color: initial; float: none; display: inline !important;&quot;&gt;3.3&lt;/span&gt;" style="whiteSpace=wrap;html=1;aspect=fixed;fontSize=24;" parent="lY5xhKyxChRA9pRhjd0q-133" vertex="1">
          <mxGeometry x="190" y="10" width="80" height="80" as="geometry" />
        </mxCell>
        <mxCell id="lY5xhKyxChRA9pRhjd0q-21" value="&lt;span style=&quot;color: rgb(0, 0, 0); font-family: Helvetica; font-size: 24px; font-style: normal; font-variant-ligatures: normal; font-variant-caps: normal; font-weight: 400; letter-spacing: normal; orphans: 2; text-align: center; text-indent: 0px; text-transform: none; widows: 2; word-spacing: 0px; -webkit-text-stroke-width: 0px; text-decoration-thickness: initial; text-decoration-style: initial; text-decoration-color: initial; float: none; display: inline !important;&quot;&gt;0&lt;/span&gt;" style="whiteSpace=wrap;html=1;aspect=fixed;fontSize=24;fillColor=#dae8fc;strokeColor=#6c8ebf;labelBackgroundColor=none;" parent="lY5xhKyxChRA9pRhjd0q-133" vertex="1">
          <mxGeometry x="280" y="10" width="80" height="80" as="geometry" />
        </mxCell>
        <mxCell id="lY5xhKyxChRA9pRhjd0q-22" value="&lt;span style=&quot;color: rgb(0, 0, 0); font-family: Helvetica; font-size: 24px; font-style: normal; font-variant-ligatures: normal; font-variant-caps: normal; font-weight: 400; letter-spacing: normal; orphans: 2; text-align: center; text-indent: 0px; text-transform: none; widows: 2; word-spacing: 0px; -webkit-text-stroke-width: 0px; text-decoration-thickness: initial; text-decoration-style: initial; text-decoration-color: initial; float: none; display: inline !important;&quot;&gt;0&lt;/span&gt;" style="whiteSpace=wrap;html=1;aspect=fixed;fontSize=24;fillColor=#dae8fc;strokeColor=#6c8ebf;labelBackgroundColor=none;" parent="lY5xhKyxChRA9pRhjd0q-133" vertex="1">
          <mxGeometry x="370" y="10" width="80" height="80" as="geometry" />
        </mxCell>
        <mxCell id="lY5xhKyxChRA9pRhjd0q-23" value="&lt;span style=&quot;color: rgb(0, 0, 0); font-family: Helvetica; font-size: 24px; font-style: normal; font-variant-ligatures: normal; font-variant-caps: normal; font-weight: 400; letter-spacing: normal; orphans: 2; text-align: center; text-indent: 0px; text-transform: none; widows: 2; word-spacing: 0px; -webkit-text-stroke-width: 0px; background-color: rgb(251, 251, 251); text-decoration-thickness: initial; text-decoration-style: initial; text-decoration-color: initial; float: none; display: inline !important;&quot;&gt;6.6&lt;/span&gt;" style="whiteSpace=wrap;html=1;aspect=fixed;fontSize=24;" parent="lY5xhKyxChRA9pRhjd0q-133" vertex="1">
          <mxGeometry x="460" y="10" width="80" height="80" as="geometry" />
        </mxCell>
        <mxCell id="lY5xhKyxChRA9pRhjd0q-24" value="0" style="whiteSpace=wrap;html=1;aspect=fixed;fontSize=24;fillColor=#dae8fc;strokeColor=#6c8ebf;" parent="lY5xhKyxChRA9pRhjd0q-133" vertex="1">
          <mxGeometry x="640" y="10" width="80" height="80" as="geometry" />
        </mxCell>
        <mxCell id="lY5xhKyxChRA9pRhjd0q-25" value="7.7" style="whiteSpace=wrap;html=1;aspect=fixed;fontSize=24;" parent="lY5xhKyxChRA9pRhjd0q-133" vertex="1">
          <mxGeometry x="550" y="10" width="80" height="80" as="geometry" />
        </mxCell>
        <mxCell id="lY5xhKyxChRA9pRhjd0q-26" value="9.9" style="whiteSpace=wrap;html=1;aspect=fixed;fontSize=24;" parent="lY5xhKyxChRA9pRhjd0q-133" vertex="1">
          <mxGeometry x="730" y="10" width="80" height="80" as="geometry" />
        </mxCell>
        <mxCell id="lY5xhKyxChRA9pRhjd0q-27" value="0" style="whiteSpace=wrap;html=1;aspect=fixed;fontSize=24;fillColor=#dae8fc;strokeColor=#6c8ebf;" parent="lY5xhKyxChRA9pRhjd0q-133" vertex="1">
          <mxGeometry x="820" y="10" width="80" height="80" as="geometry" />
        </mxCell>
        <mxCell id="lY5xhKyxChRA9pRhjd0q-28" value="0" style="whiteSpace=wrap;html=1;aspect=fixed;fontSize=24;fillColor=#dae8fc;strokeColor=#6c8ebf;" parent="lY5xhKyxChRA9pRhjd0q-133" vertex="1">
          <mxGeometry x="910" y="10" width="80" height="80" as="geometry" />
        </mxCell>
        <mxCell id="lY5xhKyxChRA9pRhjd0q-29" value="0" style="whiteSpace=wrap;html=1;aspect=fixed;fontSize=24;fillColor=#dae8fc;strokeColor=#6c8ebf;" parent="lY5xhKyxChRA9pRhjd0q-133" vertex="1">
          <mxGeometry x="1000" y="10" width="80" height="80" as="geometry" />
        </mxCell>
        <mxCell id="lY5xhKyxChRA9pRhjd0q-136" value="" style="group" parent="1" vertex="1" connectable="0">
          <mxGeometry x="300" y="260" width="1090" height="100" as="geometry" />
        </mxCell>
        <mxCell id="lY5xhKyxChRA9pRhjd0q-1" value="" style="rounded=0;whiteSpace=wrap;html=1;fillColor=#dae8fc;strokeColor=#6c8ebf;fontSize=24;container=0;" parent="lY5xhKyxChRA9pRhjd0q-136" vertex="1">
          <mxGeometry width="1090" height="100" as="geometry" />
        </mxCell>
        <mxCell id="lY5xhKyxChRA9pRhjd0q-2" value="2.2" style="whiteSpace=wrap;html=1;aspect=fixed;fontSize=24;container=0;" parent="lY5xhKyxChRA9pRhjd0q-136" vertex="1">
          <mxGeometry x="100" y="10" width="80" height="80" as="geometry" />
        </mxCell>
        <mxCell id="lY5xhKyxChRA9pRhjd0q-3" value="1.1" style="whiteSpace=wrap;html=1;aspect=fixed;fontSize=24;container=0;" parent="lY5xhKyxChRA9pRhjd0q-136" vertex="1">
          <mxGeometry x="10" y="10" width="80" height="80" as="geometry" />
        </mxCell>
        <mxCell id="lY5xhKyxChRA9pRhjd0q-4" value="&lt;span style=&quot;color: rgb(0, 0, 0); font-family: Helvetica; font-size: 24px; font-style: normal; font-variant-ligatures: normal; font-variant-caps: normal; font-weight: 400; letter-spacing: normal; orphans: 2; text-align: center; text-indent: 0px; text-transform: none; widows: 2; word-spacing: 0px; -webkit-text-stroke-width: 0px; background-color: rgb(251, 251, 251); text-decoration-thickness: initial; text-decoration-style: initial; text-decoration-color: initial; float: none; display: inline !important;&quot;&gt;3.3&lt;/span&gt;" style="whiteSpace=wrap;html=1;aspect=fixed;fontSize=24;container=0;" parent="lY5xhKyxChRA9pRhjd0q-136" vertex="1">
          <mxGeometry x="190" y="10" width="80" height="80" as="geometry" />
        </mxCell>
        <mxCell id="lY5xhKyxChRA9pRhjd0q-5" value="&lt;span style=&quot;color: rgb(0, 0, 0); font-family: Helvetica; font-size: 24px; font-style: normal; font-variant-ligatures: normal; font-variant-caps: normal; font-weight: 400; letter-spacing: normal; orphans: 2; text-align: center; text-indent: 0px; text-transform: none; widows: 2; word-spacing: 0px; -webkit-text-stroke-width: 0px; background-color: rgb(251, 251, 251); text-decoration-thickness: initial; text-decoration-style: initial; text-decoration-color: initial; float: none; display: inline !important;&quot;&gt;4.4&lt;/span&gt;" style="whiteSpace=wrap;html=1;aspect=fixed;fontSize=24;container=0;" parent="lY5xhKyxChRA9pRhjd0q-136" vertex="1">
          <mxGeometry x="280" y="10" width="80" height="80" as="geometry" />
        </mxCell>
        <mxCell id="lY5xhKyxChRA9pRhjd0q-6" value="&lt;span style=&quot;color: rgb(0, 0, 0); font-family: Helvetica; font-size: 24px; font-style: normal; font-variant-ligatures: normal; font-variant-caps: normal; font-weight: 400; letter-spacing: normal; orphans: 2; text-align: center; text-indent: 0px; text-transform: none; widows: 2; word-spacing: 0px; -webkit-text-stroke-width: 0px; background-color: rgb(251, 251, 251); text-decoration-thickness: initial; text-decoration-style: initial; text-decoration-color: initial; float: none; display: inline !important;&quot;&gt;5.5&lt;/span&gt;" style="whiteSpace=wrap;html=1;aspect=fixed;fontSize=24;container=0;" parent="lY5xhKyxChRA9pRhjd0q-136" vertex="1">
          <mxGeometry x="370" y="10" width="80" height="80" as="geometry" />
        </mxCell>
        <mxCell id="lY5xhKyxChRA9pRhjd0q-7" value="&lt;span style=&quot;color: rgb(0, 0, 0); font-family: Helvetica; font-size: 24px; font-style: normal; font-variant-ligatures: normal; font-variant-caps: normal; font-weight: 400; letter-spacing: normal; orphans: 2; text-align: center; text-indent: 0px; text-transform: none; widows: 2; word-spacing: 0px; -webkit-text-stroke-width: 0px; background-color: rgb(251, 251, 251); text-decoration-thickness: initial; text-decoration-style: initial; text-decoration-color: initial; float: none; display: inline !important;&quot;&gt;6.6&lt;/span&gt;" style="whiteSpace=wrap;html=1;aspect=fixed;fontSize=24;container=0;" parent="lY5xhKyxChRA9pRhjd0q-136" vertex="1">
          <mxGeometry x="460" y="10" width="80" height="80" as="geometry" />
        </mxCell>
        <mxCell id="lY5xhKyxChRA9pRhjd0q-9" value="8.8" style="whiteSpace=wrap;html=1;aspect=fixed;fontSize=24;container=0;" parent="lY5xhKyxChRA9pRhjd0q-136" vertex="1">
          <mxGeometry x="640" y="10" width="80" height="80" as="geometry" />
        </mxCell>
        <mxCell id="lY5xhKyxChRA9pRhjd0q-10" value="7.7" style="whiteSpace=wrap;html=1;aspect=fixed;fontSize=24;container=0;" parent="lY5xhKyxChRA9pRhjd0q-136" vertex="1">
          <mxGeometry x="550" y="10" width="80" height="80" as="geometry" />
        </mxCell>
        <mxCell id="lY5xhKyxChRA9pRhjd0q-11" value="9.9" style="whiteSpace=wrap;html=1;aspect=fixed;fontSize=24;container=0;" parent="lY5xhKyxChRA9pRhjd0q-136" vertex="1">
          <mxGeometry x="730" y="10" width="80" height="80" as="geometry" />
        </mxCell>
        <mxCell id="lY5xhKyxChRA9pRhjd0q-12" value="10.1" style="whiteSpace=wrap;html=1;aspect=fixed;fontSize=24;container=0;" parent="lY5xhKyxChRA9pRhjd0q-136" vertex="1">
          <mxGeometry x="820" y="10" width="80" height="80" as="geometry" />
        </mxCell>
        <mxCell id="lY5xhKyxChRA9pRhjd0q-13" value="12.2" style="whiteSpace=wrap;html=1;aspect=fixed;fontSize=24;container=0;" parent="lY5xhKyxChRA9pRhjd0q-136" vertex="1">
          <mxGeometry x="910" y="10" width="80" height="80" as="geometry" />
        </mxCell>
        <mxCell id="lY5xhKyxChRA9pRhjd0q-14" value="13.3" style="whiteSpace=wrap;html=1;aspect=fixed;fontSize=24;container=0;" parent="lY5xhKyxChRA9pRhjd0q-136" vertex="1">
          <mxGeometry x="1000" y="10" width="80" height="80" as="geometry" />
        </mxCell>
        <mxCell id="lY5xhKyxChRA9pRhjd0q-137" value="" style="rounded=0;whiteSpace=wrap;html=1;fillColor=#dae8fc;strokeColor=#6c8ebf;fontSize=24;container=0;" parent="1" vertex="1">
          <mxGeometry x="300" y="140" width="190" height="100" as="geometry" />
        </mxCell>
        <mxCell id="lY5xhKyxChRA9pRhjd0q-138" value="::T" style="whiteSpace=wrap;html=1;aspect=fixed;fontSize=24;container=0;" parent="1" vertex="1">
          <mxGeometry x="310" y="150" width="80" height="80" as="geometry" />
        </mxCell>
        <mxCell id="lY5xhKyxChRA9pRhjd0q-139" value="Z" style="whiteSpace=wrap;html=1;aspect=fixed;fontSize=24;fillColor=#dae8fc;strokeColor=none;" parent="1" vertex="1">
          <mxGeometry x="400" y="150" width="80" height="80" as="geometry" />
        </mxCell>
        <mxCell id="lY5xhKyxChRA9pRhjd0q-140" value="" style="rounded=0;whiteSpace=wrap;html=1;fillColor=#dae8fc;strokeColor=#6c8ebf;fontSize=24;container=0;" parent="1" vertex="1">
          <mxGeometry x="300" y="20" width="190" height="100" as="geometry" />
        </mxCell>
        <mxCell id="lY5xhKyxChRA9pRhjd0q-141" value="true" style="whiteSpace=wrap;html=1;aspect=fixed;fontSize=24;container=0;" parent="1" vertex="1">
          <mxGeometry x="310" y="30" width="80" height="80" as="geometry" />
        </mxCell>
        <mxCell id="lY5xhKyxChRA9pRhjd0q-142" value="false" style="whiteSpace=wrap;html=1;aspect=fixed;fontSize=24;fillColor=#dae8fc;strokeColor=none;" parent="1" vertex="1">
          <mxGeometry x="400" y="30" width="80" height="80" as="geometry" />
        </mxCell>
        <mxCell id="lY5xhKyxChRA9pRhjd0q-144" value="Pattern Data" style="whiteSpace=wrap;html=1;fontSize=24;container=0;" parent="1" vertex="1">
          <mxGeometry x="20" y="30" width="250" height="80" as="geometry" />
        </mxCell>
        <mxCell id="lY5xhKyxChRA9pRhjd0q-145" value="Element Data" style="whiteSpace=wrap;html=1;fontSize=24;container=0;" parent="1" vertex="1">
          <mxGeometry x="20" y="150" width="250" height="80" as="geometry" />
        </mxCell>
        <mxCell id="lY5xhKyxChRA9pRhjd0q-146" value="Dense Data" style="whiteSpace=wrap;html=1;fontSize=24;container=0;" parent="1" vertex="1">
          <mxGeometry x="20" y="270" width="250" height="80" as="geometry" />
        </mxCell>
        <mxCell id="lY5xhKyxChRA9pRhjd0q-147" value="Sparse Data" style="whiteSpace=wrap;html=1;fontSize=24;container=0;" parent="1" vertex="1">
          <mxGeometry x="20" y="390" width="250" height="80" as="geometry" />
        </mxCell>
        <mxCell id="lY5xhKyxChRA9pRhjd0q-148" value="Sparse Runs" style="whiteSpace=wrap;html=1;fontSize=24;container=0;" parent="1" vertex="1">
          <mxGeometry x="20" y="510" width="250" height="80" as="geometry" />
        </mxCell>
        <mxCell id="lY5xhKyxChRA9pRhjd0q-149" value="Dense Runs" style="whiteSpace=wrap;html=1;fontSize=24;container=0;" parent="1" vertex="1">
          <mxGeometry x="20" y="630" width="250" height="80" as="geometry" />
        </mxCell>
        <mxCell id="lY5xhKyxChRA9pRhjd0q-150" value="Sparse Blocks" style="whiteSpace=wrap;html=1;fontSize=24;container=0;" parent="1" vertex="1">
          <mxGeometry x="20" y="750" width="250" height="80" as="geometry" />
        </mxCell>
        <mxCell id="hcNm6DOQv9-YO00QfhXo-16" value="" style="group" vertex="1" connectable="0" parent="1">
          <mxGeometry x="300" y="860" width="1090" height="100" as="geometry" />
        </mxCell>
        <mxCell id="hcNm6DOQv9-YO00QfhXo-17" value="" style="rounded=0;whiteSpace=wrap;html=1;fillColor=#dae8fc;strokeColor=#6c8ebf;fontSize=24;" vertex="1" parent="hcNm6DOQv9-YO00QfhXo-16">
          <mxGeometry width="1090" height="100" as="geometry" />
        </mxCell>
        <mxCell id="hcNm6DOQv9-YO00QfhXo-18" value="0" style="whiteSpace=wrap;html=1;aspect=fixed;fontSize=24;fillColor=#dae8fc;strokeColor=#6c8ebf;" vertex="1" parent="hcNm6DOQv9-YO00QfhXo-16">
          <mxGeometry x="100" y="10" width="80" height="80" as="geometry" />
        </mxCell>
        <mxCell id="hcNm6DOQv9-YO00QfhXo-19" value="0" style="whiteSpace=wrap;html=1;aspect=fixed;fontSize=24;fillColor=#dae8fc;strokeColor=#6c8ebf;" vertex="1" parent="hcNm6DOQv9-YO00QfhXo-16">
          <mxGeometry x="10" y="10" width="80" height="80" as="geometry" />
        </mxCell>
        <mxCell id="hcNm6DOQv9-YO00QfhXo-21" value="&lt;span style=&quot;color: rgb(0, 0, 0); font-family: Helvetica; font-size: 24px; font-style: normal; font-variant-ligatures: normal; font-variant-caps: normal; font-weight: 400; letter-spacing: normal; orphans: 2; text-align: center; text-indent: 0px; text-transform: none; widows: 2; word-spacing: 0px; -webkit-text-stroke-width: 0px; text-decoration-thickness: initial; text-decoration-style: initial; text-decoration-color: initial; float: none; display: inline !important;&quot;&gt;0&lt;/span&gt;" style="whiteSpace=wrap;html=1;aspect=fixed;fontSize=24;fillColor=#dae8fc;strokeColor=#6c8ebf;labelBackgroundColor=none;" vertex="1" parent="hcNm6DOQv9-YO00QfhXo-16">
          <mxGeometry x="280" y="10" width="80" height="80" as="geometry" />
        </mxCell>
        <mxCell id="hcNm6DOQv9-YO00QfhXo-22" value="&lt;span style=&quot;color: rgb(0, 0, 0); font-family: Helvetica; font-size: 24px; font-style: normal; font-variant-ligatures: normal; font-variant-caps: normal; font-weight: 400; letter-spacing: normal; orphans: 2; text-align: center; text-indent: 0px; text-transform: none; widows: 2; word-spacing: 0px; -webkit-text-stroke-width: 0px; text-decoration-thickness: initial; text-decoration-style: initial; text-decoration-color: initial; float: none; display: inline !important;&quot;&gt;0&lt;/span&gt;" style="whiteSpace=wrap;html=1;aspect=fixed;fontSize=24;fillColor=#dae8fc;strokeColor=#6c8ebf;labelBackgroundColor=none;" vertex="1" parent="hcNm6DOQv9-YO00QfhXo-16">
          <mxGeometry x="370" y="10" width="80" height="80" as="geometry" />
        </mxCell>
        <mxCell id="hcNm6DOQv9-YO00QfhXo-23" value="&lt;span style=&quot;color: rgb(0, 0, 0); font-family: Helvetica; font-size: 24px; font-style: normal; font-variant-ligatures: normal; font-variant-caps: normal; font-weight: 400; letter-spacing: normal; orphans: 2; text-align: center; text-indent: 0px; text-transform: none; widows: 2; word-spacing: 0px; -webkit-text-stroke-width: 0px; background-color: rgb(251, 251, 251); text-decoration-thickness: initial; text-decoration-style: initial; text-decoration-color: initial; float: none; display: inline !important;&quot;&gt;6.6&lt;/span&gt;" style="whiteSpace=wrap;html=1;aspect=fixed;fontSize=24;" vertex="1" parent="hcNm6DOQv9-YO00QfhXo-16">
          <mxGeometry x="460" y="10" width="80" height="80" as="geometry" />
        </mxCell>
        <mxCell id="hcNm6DOQv9-YO00QfhXo-24" value="0" style="whiteSpace=wrap;html=1;aspect=fixed;fontSize=24;fillColor=#dae8fc;strokeColor=#6c8ebf;" vertex="1" parent="hcNm6DOQv9-YO00QfhXo-16">
          <mxGeometry x="640" y="10" width="80" height="80" as="geometry" />
        </mxCell>
        <mxCell id="hcNm6DOQv9-YO00QfhXo-27" value="0" style="whiteSpace=wrap;html=1;aspect=fixed;fontSize=24;fillColor=#dae8fc;strokeColor=#6c8ebf;" vertex="1" parent="hcNm6DOQv9-YO00QfhXo-16">
          <mxGeometry x="820" y="10" width="80" height="80" as="geometry" />
        </mxCell>
        <mxCell id="hcNm6DOQv9-YO00QfhXo-28" value="0" style="whiteSpace=wrap;html=1;aspect=fixed;fontSize=24;fillColor=#dae8fc;strokeColor=#6c8ebf;" vertex="1" parent="hcNm6DOQv9-YO00QfhXo-16">
          <mxGeometry x="910" y="10" width="80" height="80" as="geometry" />
        </mxCell>
        <mxCell id="hcNm6DOQv9-YO00QfhXo-29" value="0" style="whiteSpace=wrap;html=1;aspect=fixed;fontSize=24;fillColor=#dae8fc;strokeColor=#6c8ebf;" vertex="1" parent="hcNm6DOQv9-YO00QfhXo-16">
          <mxGeometry x="1000" y="10" width="80" height="80" as="geometry" />
        </mxCell>
        <mxCell id="hcNm6DOQv9-YO00QfhXo-44" value="0" style="whiteSpace=wrap;html=1;aspect=fixed;fontSize=24;fillColor=#dae8fc;strokeColor=#6c8ebf;" vertex="1" parent="hcNm6DOQv9-YO00QfhXo-16">
          <mxGeometry x="190" y="10" width="80" height="80" as="geometry" />
        </mxCell>
        <mxCell id="hcNm6DOQv9-YO00QfhXo-45" value="0" style="whiteSpace=wrap;html=1;aspect=fixed;fontSize=24;fillColor=#dae8fc;strokeColor=#6c8ebf;" vertex="1" parent="hcNm6DOQv9-YO00QfhXo-16">
          <mxGeometry x="550" y="10" width="80" height="80" as="geometry" />
        </mxCell>
        <mxCell id="hcNm6DOQv9-YO00QfhXo-46" value="0" style="whiteSpace=wrap;html=1;aspect=fixed;fontSize=24;fillColor=#dae8fc;strokeColor=#6c8ebf;" vertex="1" parent="hcNm6DOQv9-YO00QfhXo-16">
          <mxGeometry x="730" y="10" width="80" height="80" as="geometry" />
        </mxCell>
        <mxCell id="hcNm6DOQv9-YO00QfhXo-30" value="Sparse Pinpoint" style="whiteSpace=wrap;html=1;fontSize=24;container=0;" vertex="1" parent="1">
          <mxGeometry x="20" y="870" width="250" height="80" as="geometry" />
        </mxCell>
        <mxCell id="hcNm6DOQv9-YO00QfhXo-61" value="Sparse Band" style="whiteSpace=wrap;html=1;fontSize=24;container=0;" vertex="1" parent="1">
          <mxGeometry x="20" y="990" width="250" height="80" as="geometry" />
        </mxCell>
        <mxCell id="hcNm6DOQv9-YO00QfhXo-63" value="" style="group" vertex="1" connectable="0" parent="1">
          <mxGeometry x="300" y="980" width="1090" height="100" as="geometry" />
        </mxCell>
        <mxCell id="hcNm6DOQv9-YO00QfhXo-48" value="" style="rounded=0;whiteSpace=wrap;html=1;fillColor=#dae8fc;strokeColor=#6c8ebf;fontSize=24;" vertex="1" parent="hcNm6DOQv9-YO00QfhXo-63">
          <mxGeometry width="1090" height="100" as="geometry" />
        </mxCell>
        <mxCell id="hcNm6DOQv9-YO00QfhXo-49" value="2.2" style="whiteSpace=wrap;html=1;aspect=fixed;fontSize=24;" vertex="1" parent="hcNm6DOQv9-YO00QfhXo-63">
          <mxGeometry x="100" y="10" width="80" height="80" as="geometry" />
        </mxCell>
        <mxCell id="hcNm6DOQv9-YO00QfhXo-50" value="&lt;span style=&quot;color: rgb(0, 0, 0); font-family: Helvetica; font-size: 24px; font-style: normal; font-variant-ligatures: normal; font-variant-caps: normal; font-weight: 400; letter-spacing: normal; orphans: 2; text-align: center; text-indent: 0px; text-transform: none; widows: 2; word-spacing: 0px; -webkit-text-stroke-width: 0px; background-color: rgb(251, 251, 251); text-decoration-thickness: initial; text-decoration-style: initial; text-decoration-color: initial; float: none; display: inline !important;&quot;&gt;3.3&lt;/span&gt;" style="whiteSpace=wrap;html=1;aspect=fixed;fontSize=24;" vertex="1" parent="hcNm6DOQv9-YO00QfhXo-63">
          <mxGeometry x="190" y="10" width="80" height="80" as="geometry" />
        </mxCell>
        <mxCell id="hcNm6DOQv9-YO00QfhXo-51" value="&lt;span style=&quot;color: rgb(0, 0, 0); font-family: Helvetica; font-size: 24px; font-style: normal; font-variant-ligatures: normal; font-variant-caps: normal; font-weight: 400; letter-spacing: normal; orphans: 2; text-align: center; text-indent: 0px; text-transform: none; widows: 2; word-spacing: 0px; -webkit-text-stroke-width: 0px; background-color: rgb(251, 251, 251); text-decoration-thickness: initial; text-decoration-style: initial; text-decoration-color: initial; float: none; display: inline !important;&quot;&gt;4.4&lt;/span&gt;" style="whiteSpace=wrap;html=1;aspect=fixed;fontSize=24;" vertex="1" parent="hcNm6DOQv9-YO00QfhXo-63">
          <mxGeometry x="280" y="10" width="80" height="80" as="geometry" />
        </mxCell>
        <mxCell id="hcNm6DOQv9-YO00QfhXo-52" value="&lt;span style=&quot;color: rgb(0, 0, 0); font-family: Helvetica; font-size: 24px; font-style: normal; font-variant-ligatures: normal; font-variant-caps: normal; font-weight: 400; letter-spacing: normal; orphans: 2; text-align: center; text-indent: 0px; text-transform: none; widows: 2; word-spacing: 0px; -webkit-text-stroke-width: 0px; background-color: rgb(251, 251, 251); text-decoration-thickness: initial; text-decoration-style: initial; text-decoration-color: initial; float: none; display: inline !important;&quot;&gt;5.5&lt;/span&gt;" style="whiteSpace=wrap;html=1;aspect=fixed;fontSize=24;" vertex="1" parent="hcNm6DOQv9-YO00QfhXo-63">
          <mxGeometry x="370" y="10" width="80" height="80" as="geometry" />
        </mxCell>
        <mxCell id="hcNm6DOQv9-YO00QfhXo-53" value="8.8" style="whiteSpace=wrap;html=1;aspect=fixed;fontSize=24;" vertex="1" parent="hcNm6DOQv9-YO00QfhXo-63">
          <mxGeometry x="640" y="10" width="80" height="80" as="geometry" />
        </mxCell>
        <mxCell id="hcNm6DOQv9-YO00QfhXo-54" value="7.7" style="whiteSpace=wrap;html=1;aspect=fixed;fontSize=24;" vertex="1" parent="hcNm6DOQv9-YO00QfhXo-63">
          <mxGeometry x="550" y="10" width="80" height="80" as="geometry" />
        </mxCell>
        <mxCell id="hcNm6DOQv9-YO00QfhXo-55" value="9.9" style="whiteSpace=wrap;html=1;aspect=fixed;fontSize=24;" vertex="1" parent="hcNm6DOQv9-YO00QfhXo-63">
          <mxGeometry x="730" y="10" width="80" height="80" as="geometry" />
        </mxCell>
        <mxCell id="hcNm6DOQv9-YO00QfhXo-56" value="10.1" style="whiteSpace=wrap;html=1;aspect=fixed;fontSize=24;" vertex="1" parent="hcNm6DOQv9-YO00QfhXo-63">
          <mxGeometry x="820" y="10" width="80" height="80" as="geometry" />
        </mxCell>
        <mxCell id="hcNm6DOQv9-YO00QfhXo-57" value="0" style="whiteSpace=wrap;html=1;aspect=fixed;fontSize=24;fillColor=#dae8fc;strokeColor=#6c8ebf;" vertex="1" parent="hcNm6DOQv9-YO00QfhXo-63">
          <mxGeometry x="10" y="10" width="80" height="80" as="geometry" />
        </mxCell>
        <mxCell id="hcNm6DOQv9-YO00QfhXo-59" value="0" style="whiteSpace=wrap;html=1;aspect=fixed;fontSize=24;fillColor=#dae8fc;strokeColor=#6c8ebf;" vertex="1" parent="hcNm6DOQv9-YO00QfhXo-63">
          <mxGeometry x="910" y="10" width="80" height="80" as="geometry" />
        </mxCell>
        <mxCell id="hcNm6DOQv9-YO00QfhXo-60" value="0" style="whiteSpace=wrap;html=1;aspect=fixed;fontSize=24;fillColor=#dae8fc;strokeColor=#6c8ebf;" vertex="1" parent="hcNm6DOQv9-YO00QfhXo-63">
          <mxGeometry x="1000" y="10" width="80" height="80" as="geometry" />
        </mxCell>
        <mxCell id="hcNm6DOQv9-YO00QfhXo-62" value="&lt;span style=&quot;color: rgb(0, 0, 0); font-family: Helvetica; font-size: 24px; font-style: normal; font-variant-ligatures: normal; font-variant-caps: normal; font-weight: 400; letter-spacing: normal; orphans: 2; text-align: center; text-indent: 0px; text-transform: none; widows: 2; word-spacing: 0px; -webkit-text-stroke-width: 0px; background-color: rgb(251, 251, 251); text-decoration-thickness: initial; text-decoration-style: initial; text-decoration-color: initial; float: none; display: inline !important;&quot;&gt;6.6&lt;/span&gt;" style="whiteSpace=wrap;html=1;aspect=fixed;fontSize=24;" vertex="1" parent="hcNm6DOQv9-YO00QfhXo-63">
          <mxGeometry x="460" y="10" width="80" height="80" as="geometry" />
        </mxCell>
        <mxCell id="hcNm6DOQv9-YO00QfhXo-79" value="" style="group" vertex="1" connectable="0" parent="1">
          <mxGeometry x="300" y="1100" width="1090" height="100" as="geometry" />
        </mxCell>
        <mxCell id="hcNm6DOQv9-YO00QfhXo-80" value="" style="rounded=0;whiteSpace=wrap;html=1;fillColor=#dae8fc;strokeColor=#6c8ebf;fontSize=24;" vertex="1" parent="hcNm6DOQv9-YO00QfhXo-79">
          <mxGeometry width="1090" height="100" as="geometry" />
        </mxCell>
        <mxCell id="hcNm6DOQv9-YO00QfhXo-81" value="0" style="whiteSpace=wrap;html=1;aspect=fixed;fontSize=24;fillColor=#dae8fc;strokeColor=#6c8ebf;" vertex="1" parent="hcNm6DOQv9-YO00QfhXo-79">
          <mxGeometry x="100" y="10" width="80" height="80" as="geometry" />
        </mxCell>
        <mxCell id="hcNm6DOQv9-YO00QfhXo-82" value="0" style="whiteSpace=wrap;html=1;aspect=fixed;fontSize=24;fillColor=#dae8fc;strokeColor=#6c8ebf;" vertex="1" parent="hcNm6DOQv9-YO00QfhXo-79">
          <mxGeometry x="10" y="10" width="80" height="80" as="geometry" />
        </mxCell>
        <mxCell id="hcNm6DOQv9-YO00QfhXo-85" value="&lt;span style=&quot;color: rgb(0, 0, 0); font-family: Helvetica; font-size: 24px; font-style: normal; font-variant-ligatures: normal; font-variant-caps: normal; font-weight: 400; letter-spacing: normal; orphans: 2; text-align: center; text-indent: 0px; text-transform: none; widows: 2; word-spacing: 0px; -webkit-text-stroke-width: 0px; background-color: rgb(251, 251, 251); text-decoration-thickness: initial; text-decoration-style: initial; text-decoration-color: initial; float: none; display: inline !important;&quot;&gt;6.6&lt;/span&gt;" style="whiteSpace=wrap;html=1;fontSize=24;" vertex="1" parent="hcNm6DOQv9-YO00QfhXo-79">
          <mxGeometry x="280" y="10" width="350" height="80" as="geometry" />
        </mxCell>
        <mxCell id="hcNm6DOQv9-YO00QfhXo-86" value="0" style="whiteSpace=wrap;html=1;aspect=fixed;fontSize=24;fillColor=#dae8fc;strokeColor=#6c8ebf;" vertex="1" parent="hcNm6DOQv9-YO00QfhXo-79">
          <mxGeometry x="640" y="10" width="80" height="80" as="geometry" />
        </mxCell>
        <mxCell id="hcNm6DOQv9-YO00QfhXo-87" value="0" style="whiteSpace=wrap;html=1;aspect=fixed;fontSize=24;fillColor=#dae8fc;strokeColor=#6c8ebf;" vertex="1" parent="hcNm6DOQv9-YO00QfhXo-79">
          <mxGeometry x="820" y="10" width="80" height="80" as="geometry" />
        </mxCell>
        <mxCell id="hcNm6DOQv9-YO00QfhXo-88" value="0" style="whiteSpace=wrap;html=1;aspect=fixed;fontSize=24;fillColor=#dae8fc;strokeColor=#6c8ebf;" vertex="1" parent="hcNm6DOQv9-YO00QfhXo-79">
          <mxGeometry x="910" y="10" width="80" height="80" as="geometry" />
        </mxCell>
        <mxCell id="hcNm6DOQv9-YO00QfhXo-89" value="0" style="whiteSpace=wrap;html=1;aspect=fixed;fontSize=24;fillColor=#dae8fc;strokeColor=#6c8ebf;" vertex="1" parent="hcNm6DOQv9-YO00QfhXo-79">
          <mxGeometry x="1000" y="10" width="80" height="80" as="geometry" />
        </mxCell>
        <mxCell id="hcNm6DOQv9-YO00QfhXo-90" value="0" style="whiteSpace=wrap;html=1;aspect=fixed;fontSize=24;fillColor=#dae8fc;strokeColor=#6c8ebf;" vertex="1" parent="hcNm6DOQv9-YO00QfhXo-79">
          <mxGeometry x="190" y="10" width="80" height="80" as="geometry" />
        </mxCell>
        <mxCell id="hcNm6DOQv9-YO00QfhXo-92" value="0" style="whiteSpace=wrap;html=1;aspect=fixed;fontSize=24;fillColor=#dae8fc;strokeColor=#6c8ebf;" vertex="1" parent="hcNm6DOQv9-YO00QfhXo-79">
          <mxGeometry x="730" y="10" width="80" height="80" as="geometry" />
        </mxCell>
        <mxCell id="hcNm6DOQv9-YO00QfhXo-93" value="Sparse Run" style="whiteSpace=wrap;html=1;fontSize=24;container=0;" vertex="1" parent="1">
          <mxGeometry x="20" y="1110" width="250" height="80" as="geometry" />
        </mxCell>
      </root>
    </mxGraphModel>
  </diagram>
</mxfile>
